<svg xmlns="http://www.w3.org/2000/svg" fill="none" viewBox="0 0 18 18">
    <path fill="#6A6A6A" d="M17.4 0.613336C17.1509 0.363666 16.8127 0.223355 16.46 0.223355C16.1073 0.223355 15.7691 0.363666 15.52 0.613336L9.00002 7.12L2.48002 0.600003C2.23091 0.350333 1.89271 0.210022 1.54002 0.210022C1.18733 0.210022 0.849131 0.350333 0.600022 0.600003C0.080022 1.12 0.080022 1.96 0.600022 2.48L7.12002 9L0.600022 15.52C0.080022 16.04 0.080022 16.88 0.600022 17.4C1.12002 17.92 1.96002 17.92 2.48002 17.4L9.00002 10.88L15.52 17.4C16.04 17.92 16.88 17.92 17.4 17.4C17.92 16.88 17.92 16.04 17.4 15.52L10.88 9L17.4 2.48C17.9067 1.97334 17.9067 1.12 17.4 0.613336Z"/>
</svg>