<svg xmlns="http://www.w3.org/2000/svg" fill="none" viewBox="0 0 34 34">
    <circle cx="17" cy="17" r="17" fill="#fff"/>
    <path fill="#090D11" d="M24.5804 20.7424L22.3429 18.5095C21.5438 17.7121 20.1853 18.0311 19.8656 19.0677C19.6259 19.7855 18.8267 20.1842 18.1075 20.0247C16.5093 19.626 14.3517 17.5526 13.9521 15.878C13.7124 15.1602 14.1918 14.3628 14.911 14.1236C15.9499 13.8046 16.2696 12.4489 15.4704 11.6515L13.2329 9.41866C12.5936 8.86045 11.6346 8.86045 11.0752 9.41866L9.55691 10.9338C8.03858 12.5287 9.71674 16.7551 13.4726 20.5031C17.2285 24.2511 21.4639 26.0055 23.0621 24.4106L24.5804 22.8955C25.1399 22.2575 25.1399 21.3006 24.5804 20.7424Z"/>
</svg>